<mxfile host="app.diagrams.net" modified="2024-01-26T07:28:33.821Z" agent="Mozilla/5.0 (Macintosh; Intel Mac OS X 10_15_7) AppleWebKit/537.36 (KHTML, like Gecko) Chrome/120.0.0.0 Safari/537.36" etag="SkF8Mt_hkOdOuwnu8stv" version="23.0.2" type="github">
  <diagram name="第 1 页" id="Emz8UZ0YEztY7YcyeFIH">
    <mxGraphModel dx="1434" dy="786" grid="1" gridSize="10" guides="1" tooltips="1" connect="1" arrows="1" fold="1" page="1" pageScale="1" pageWidth="827" pageHeight="1169" math="0" shadow="0">
      <root>
        <mxCell id="0" />
        <mxCell id="1" parent="0" />
        <mxCell id="Cd71xnbbXx4q1nMp6Klr-6" value="" style="edgeStyle=orthogonalEdgeStyle;rounded=0;orthogonalLoop=1;jettySize=auto;html=1;" edge="1" parent="1" source="Cd71xnbbXx4q1nMp6Klr-1" target="Cd71xnbbXx4q1nMp6Klr-2">
          <mxGeometry relative="1" as="geometry" />
        </mxCell>
        <mxCell id="Cd71xnbbXx4q1nMp6Klr-1" value="Webview容器初始化" style="rounded=0;whiteSpace=wrap;html=1;" vertex="1" parent="1">
          <mxGeometry x="10" y="250" width="120" height="30" as="geometry" />
        </mxCell>
        <mxCell id="Cd71xnbbXx4q1nMp6Klr-7" value="" style="edgeStyle=orthogonalEdgeStyle;rounded=0;orthogonalLoop=1;jettySize=auto;html=1;" edge="1" parent="1" source="Cd71xnbbXx4q1nMp6Klr-2" target="Cd71xnbbXx4q1nMp6Klr-3">
          <mxGeometry relative="1" as="geometry" />
        </mxCell>
        <mxCell id="Cd71xnbbXx4q1nMp6Klr-2" value="DNS解析" style="rounded=0;whiteSpace=wrap;html=1;" vertex="1" parent="1">
          <mxGeometry x="170" y="250" width="120" height="30" as="geometry" />
        </mxCell>
        <mxCell id="Cd71xnbbXx4q1nMp6Klr-8" value="" style="edgeStyle=orthogonalEdgeStyle;rounded=0;orthogonalLoop=1;jettySize=auto;html=1;" edge="1" parent="1" source="Cd71xnbbXx4q1nMp6Klr-3" target="Cd71xnbbXx4q1nMp6Klr-4">
          <mxGeometry relative="1" as="geometry" />
        </mxCell>
        <mxCell id="Cd71xnbbXx4q1nMp6Klr-3" value="建立连接" style="rounded=0;whiteSpace=wrap;html=1;" vertex="1" parent="1">
          <mxGeometry x="340" y="250" width="120" height="30" as="geometry" />
        </mxCell>
        <mxCell id="Cd71xnbbXx4q1nMp6Klr-9" value="" style="edgeStyle=orthogonalEdgeStyle;rounded=0;orthogonalLoop=1;jettySize=auto;html=1;" edge="1" parent="1" source="Cd71xnbbXx4q1nMp6Klr-4" target="Cd71xnbbXx4q1nMp6Klr-5">
          <mxGeometry relative="1" as="geometry" />
        </mxCell>
        <mxCell id="Cd71xnbbXx4q1nMp6Klr-4" value="请求资源" style="rounded=0;whiteSpace=wrap;html=1;" vertex="1" parent="1">
          <mxGeometry x="500" y="250" width="120" height="30" as="geometry" />
        </mxCell>
        <mxCell id="Cd71xnbbXx4q1nMp6Klr-5" value="绘制页面" style="rounded=0;whiteSpace=wrap;html=1;" vertex="1" parent="1">
          <mxGeometry x="660" y="250" width="120" height="30" as="geometry" />
        </mxCell>
      </root>
    </mxGraphModel>
  </diagram>
</mxfile>
